<?xml version="1.0" standalone="no"?><!DOCTYPE svg PUBLIC "-//W3C//DTD SVG 1.1//EN" "http://www.w3.org/Graphics/SVG/1.1/DTD/svg11.dtd"><svg t="1751699891260" class="icon" viewBox="0 0 1024 1024" version="1.1" xmlns="http://www.w3.org/2000/svg" p-id="3231" xmlns:xlink="http://www.w3.org/1999/xlink" width="200" height="200"><path d="M512 128a384 384 0 1 0 0 768 384 384 0 0 0 0-768zM42.666667 512C42.666667 252.8 252.8 42.666667 512 42.666667s469.333333 210.133333 469.333333 469.333333-210.133333 469.333333-469.333333 469.333333S42.666667 771.2 42.666667 512z m213.333333-128h170.666667v85.333333H256V384z m341.333333 0h170.666667v85.333333h-170.666667V384z m-270.08 277.333333A213.248 213.248 0 0 1 512 554.666667a213.248 213.248 0 0 1 184.746667 106.666666l21.376 36.906667-73.856 42.709333-21.333334-36.906666C600.746667 665.6 559.36 640 512 640s-88.704 25.642667-110.933333 64l-21.333334 36.949333-73.856-42.709333 21.333334-36.949333z" fill="#d81e06" p-id="3232"></path></svg>